<svg xmlns="http://www.w3.org/2000/svg" width="512" height="512" viewBox="0 0 58 58">
  <defs>
    <linearGradient id="tile" x1="0" y1="0" x2="1" y2="1">
      <stop offset="0" stop-color="#2B5BE0"></stop><stop offset="0.55" stop-color="#12358F"></stop><stop offset="1" stop-color="#0B1F4F"></stop>
    </linearGradient>
    <radialGradient id="glow" cx="0.76" cy="0.16" r="0.6">
      <stop offset="0" stop-color="#F5B93B" stop-opacity="0.34"></stop><stop offset="1" stop-color="#F5B93B" stop-opacity="0"></stop>
    </radialGradient>
    <clipPath id="clip"><rect width="58" height="58" rx="18"></rect></clipPath>
  </defs>
  <g clip-path="url(#clip)">
    <rect width="58" height="58" fill="url(#tile)"></rect>
    <rect width="58" height="58" fill="url(#glow)"></rect>
    <circle cx="9" cy="63" r="23" fill="#FFFFFF" fill-opacity="0.05"></circle>
  </g>
  <rect x="1.25" y="1.25" width="55.5" height="55.5" rx="16.75" fill="none" stroke="#F5B93B" stroke-width="2.5"></rect>
  <rect x="4.5" y="4.5" width="49" height="49" rx="13.5" fill="none" stroke="#FFFFFF" stroke-opacity="0.1" stroke-width="2"></rect>
  <g transform="translate(6.04,6.04) scale(0.9583)">
    <path d="M14 41 V23 a10.5 10.5 0 0 1 21 0 V41" fill="none" stroke="#8A5E12" stroke-width="7.5" stroke-linecap="round" transform="translate(2.4,2.4)"></path>
    <path d="M14 41 V23 a10.5 10.5 0 0 1 21 0 V41" fill="none" stroke="#F5B93B" stroke-width="7.5" stroke-linecap="round"></path>
    <path d="M12.6 39 V23.4 a10.5 10.5 0 0 1 8.4 -10.2" fill="none" stroke="#FFE0A0" stroke-width="2.1" stroke-linecap="round"></path>
    <circle cx="34" cy="36.5" r="10.2" fill="#FFFFFF" stroke="#F5B93B" stroke-width="2.4"></circle>
    <path d="M29.2 36.6 L32.7 40.2 L39 32.8" fill="none" stroke="#0E2A6B" stroke-width="3.6" stroke-linecap="round" stroke-linejoin="round"></path>
  </g>
</svg>